<svg id="1868c693-5222-484b-92d0-3a8b135b8ee4" data-name="Camada 1" xmlns="http://www.w3.org/2000/svg" xmlns:xlink="http://www.w3.org/1999/xlink" viewBox="0 0 254 254"><defs><style>.b836ced5-69b8-4090-9f71-ad59bb3931d3{fill:#fff;}.\39 19464e3-1364-4e35-a784-589edf2fca8e{fill:url(#a5afa9ed-e77f-446e-8b9b-9f98ee4112da);}.\35 6644507-7745-4a31-8626-a4b8c4795c17{fill:#3f3f3f;}</style><linearGradient id="a5afa9ed-e77f-446e-8b9b-9f98ee4112da" x1="49.7" y1="50.2" x2="229.3" y2="229.8" gradientUnits="userSpaceOnUse"><stop offset="0" stop-color="#39b8ea"/><stop offset="1" stop-color="#6976f5"/></linearGradient></defs><title>paks-icon</title><circle class="b836ced5-69b8-4090-9f71-ad59bb3931d3" cx="127" cy="127" r="127"/><path class="919464e3-1364-4e35-a784-589edf2fca8e" d="M139.5,13a127,127,0,1,0,127,127A127,127,0,0,0,139.5,13Zm82.28,221.66s-14.28-7.66-18.09-6.21a5.16,5.16,0,0,1-1.92.37,108.49,108.49,0,0,1-124.48,0,7.25,7.25,0,0,1-1.32-.2c-3.9-.94-18.31,6-18.31,6s5.86-15.11,4-18.71a6.18,6.18,0,0,1-.34-.76,108.47,108.47,0,1,1,157.18-.8,7.05,7.05,0,0,1-.37,1.4C216.69,219.52,221.78,234.66,221.78,234.66Z" transform="translate(-12.5 -13)"/><g id="16aa9461-88a3-4130-bed3-569af94cee99" data-name="QR CODE"><path id="361bb987-a3d4-4959-9005-7cd01f8097a5" data-name="path2993" class="56644507-7745-4a31-8626-a4b8c4795c17" d="M110.49,168.9v11.49H99V168.9Zm0-68.92v11.49H99V100Zm68.92,0v11.49H167.93V100Zm-91.9,91.81H122V157.41H87.52Zm0-68.83H122V88.49H87.52Zm68.92,0H190.9V88.49H156.44Zm-23,23v57.44H76V145.92Zm45.95,45.95v11.49H167.93V191.87Zm23,0v11.49H190.9V191.87Zm0-45.95v34.46H167.93V168.9H156.44v34.46H145V145.92h34.46v11.49H190.9V145.92ZM133.47,77v57.44H76V77Zm68.92,0v57.44H145V77Z" transform="translate(-12.5 -13)"/></g></svg>