<svg id="a2f2adf8-1bea-4ee2-b66d-38631b5d9975" data-name="Camada 1" xmlns="http://www.w3.org/2000/svg" viewBox="0 0 254 254"><defs><style>.\33 b02cdc1-41fe-453f-999f-a7a00ed07db5{fill:#fff;}.\38 8deaba1-d23c-4cd4-9405-46dd0b9bb872{fill:#39b8ea;}.\37 dfc6339-2d15-43ae-a302-76e202ca7dc9{fill:#3f3f3f;}</style></defs><title>paks-icon_flat</title><circle class="3b02cdc1-41fe-453f-999f-a7a00ed07db5" cx="127" cy="127" r="127"/><path class="88deaba1-d23c-4cd4-9405-46dd0b9bb872" d="M139.5,13a127,127,0,1,0,127,127A127,127,0,0,0,139.5,13Zm82.28,221.66s-14.28-7.66-18.09-6.21a5.16,5.16,0,0,1-1.92.37,108.49,108.49,0,0,1-124.48,0,7.25,7.25,0,0,1-1.32-.2c-3.9-.94-18.31,6-18.31,6s5.86-15.11,4-18.71a6.18,6.18,0,0,1-.34-.76,108.47,108.47,0,1,1,157.18-.8,7.05,7.05,0,0,1-.37,1.4C216.69,219.52,221.78,234.66,221.78,234.66Z" transform="translate(-12.5 -13)"/><g id="5ebdbe50-896a-45de-a706-1759fd0e569e" data-name="QR CODE"><path id="b8b4c41e-25df-44c0-a08e-cfc322da0b1b" data-name="path2993" class="7dfc6339-2d15-43ae-a302-76e202ca7dc9" d="M110.49,168.9v11.49H99V168.9Zm0-68.92v11.49H99V100Zm68.92,0v11.49H167.93V100Zm-91.9,91.81H122V157.41H87.52Zm0-68.83H122V88.49H87.52Zm68.92,0H190.9V88.49H156.44Zm-23,23v57.44H76V145.92Zm45.95,45.95v11.49H167.93V191.87Zm23,0v11.49H190.9V191.87Zm0-45.95v34.46H167.93V168.9H156.44v34.46H145V145.92h34.46v11.49H190.9V145.92ZM133.47,77v57.44H76V77Zm68.92,0v57.44H145V77Z" transform="translate(-12.5 -13)"/></g></svg>